<?xml version="1.0" standalone="no"?>
<!DOCTYPE svg PUBLIC "-//W3C//DTD SVG 20010904//EN"
 "http://www.w3.org/TR/2001/REC-SVG-20010904/DTD/svg10.dtd">
<svg version="1.0" xmlns="http://www.w3.org/2000/svg"
 width="150.000000pt" height="150.000000pt" viewBox="0 0 150.000000 150.000000"
 preserveAspectRatio="xMidYMid meet">
<metadata>
Created by potrace 1.11, written by Peter Selinger 2001-2013
</metadata>
<g transform="translate(0.000000,150.000000) scale(0.100000,-0.100000)"
fill="#000000" stroke="none">
<path d="M118 1402 l-28 -3 0 -650 0 -649 25 -1 c14 -1 37 -1 53 -2 l27 -1 0
302 0 302 550 -2 549 -3 1 -290 c0 -160 3 -295 7 -300 6 -9 31 -11 85 -6 8 1
11 90 11 351 l0 350 -32 1 c-17 1 -61 1 -98 1 l-68 0 -1 62 c0 33 0 168 0 299
l0 237 -27 1 c-15 0 -37 2 -49 3 -13 2 -24 -2 -24 -8 -1 -6 -2 -141 -3 -301
l-1 -290 -450 -1 -450 -1 0 294 c0 185 -3 297 -10 301 -12 7 -30 8 -67 4z"/>
<path d="M318 1402 l-28 -3 0 -250 0 -249 354 0 354 0 -2 252 -1 252 -32 -1
c-76 -2 -69 18 -68 -198 0 -166 -2 -196 -15 -199 -8 -3 -121 -4 -250 -4 l-235
1 0 195 0 196 -25 5 c-14 4 -37 5 -52 3z"/>
<path d="M519 1400 c-24 -6 -24 -6 -24 -153 l-1 -147 152 0 152 0 0 149 c1
166 4 160 -69 153 l-36 -4 1 -81 c3 -117 2 -118 -50 -116 l-44 3 -1 65 c-2
135 -1 134 -30 135 -14 1 -36 -1 -50 -4z"/>
<path d="M1314 1400 c-19 -5 -20 -15 -20 -252 l0 -248 52 0 51 0 1 249 1 249
-33 4 c-18 2 -41 1 -52 -2z"/>
<path d="M290 351 l0 -249 28 -3 c15 -2 38 -3 52 -1 l26 3 -1 187 c-1 103 0
192 2 198 3 7 111 11 351 11 l347 0 0 -199 c0 -109 2 -198 5 -199 7 -2 62 -2
82 0 15 1 16 25 16 251 l0 250 -454 0 -454 0 0 -249z"/>
<path d="M499 398 c-8 -16 -2 -291 6 -296 9 -7 23 -7 77 -3 16 1 18 12 17 88
0 49 0 93 0 99 1 8 45 12 149 11 l147 0 0 -99 c-1 -73 3 -98 12 -99 7 0 30 -1
51 -2 l37 0 1 151 2 152 -249 0 c-137 0 -250 -1 -250 -2z"/>
<path d="M699 198 c-1 -2 -2 -24 -3 -50 -2 -52 -7 -48 72 -51 26 -1 27 1 28
51 l1 52 -48 0 c-27 0 -50 -1 -50 -2z"/>
</g>
</svg>
